<?xml version="1.0" standalone="no"?>
<!DOCTYPE svg PUBLIC "-//W3C//DTD SVG 20010904//EN"
 "http://www.w3.org/TR/2001/REC-SVG-20010904/DTD/svg10.dtd">
<svg version="1.0" xmlns="http://www.w3.org/2000/svg"
 width="155.000000pt" height="157.000000pt" viewBox="0 0 155.000000 157.000000"
 preserveAspectRatio="xMidYMid meet">

<g transform="translate(0.000000,157.000000) scale(0.100000,-0.100000)"
fill="#000000" stroke="none">
<path d="M558 1353 c-65 -41 -52 -43 232 -43 284 0 299 3 231 43 -43 25 -422
25 -463 0z"/>
<path d="M412 1203 c-18 -9 -37 -24 -43 -34 -9 -18 5 -19 421 -19 418 0 430 1
421 19 -6 10 -26 26 -45 35 -29 14 -80 16 -378 16 -296 0 -348 -3 -376 -17z"/>
<path d="M264 1050 c-76 -38 -76 -37 -72 -448 l3 -364 37 -34 38 -34 520 0
520 0 38 34 37 34 3 364 c4 412 4 411 -73 448 -40 19 -60 20 -526 20 -467 0
-485 -1 -525 -20z m613 -213 c134 -50 209 -194 170 -328 -21 -71 -74 -134
-104 -125 -36 11 -36 36 -2 84 94 131 8 302 -151 302 -159 0 -245 -171 -151
-302 34 -48 34 -73 -2 -84 -30 -9 -83 54 -104 125 -39 134 36 278 170 328 18
6 57 11 87 11 30 0 69 -5 87 -11z m-26 -160 c45 -30 64 -85 45 -130 -17 -43
-40 -60 -67 -52 -17 6 -20 12 -15 38 12 59 11 69 -6 81 -13 8 -23 8 -35 0 -18
-12 -19 -22 -7 -81 5 -26 2 -32 -15 -38 -27 -8 -50 9 -67 52 -28 65 34 153
106 153 15 0 42 -10 61 -23z"/>
</g>
</svg>
