<?xml version="1.0" standalone="no"?>
<!DOCTYPE svg PUBLIC "-//W3C//DTD SVG 20010904//EN"
 "http://www.w3.org/TR/2001/REC-SVG-20010904/DTD/svg10.dtd">
<svg version="1.0" xmlns="http://www.w3.org/2000/svg"
 width="155.000000pt" height="157.000000pt" viewBox="0 0 155.000000 157.000000"
 preserveAspectRatio="xMidYMid meet">

<g transform="translate(0.000000,157.000000) scale(0.100000,-0.100000)"
fill="#000000" stroke="none">
<path d="M861 1384 c-50 -36 -51 -46 -51 -589 0 -543 1 -553 51 -589 13 -9 43
-16 67 -16 35 0 49 6 73 29 l29 29 0 544 c0 499 -2 545 -18 564 -36 45 -107
58 -151 28z"/>
<path d="M574 1240 c-12 -4 -31 -21 -43 -36 -21 -26 -21 -34 -21 -411 l0 -385
34 -34 c40 -40 83 -45 133 -14 52 31 55 56 51 455 -3 324 -5 363 -21 386 -29
43 -83 59 -133 39z"/>
<path d="M1174 1232 c-54 -34 -55 -44 -52 -455 l3 -377 26 -26 c18 -18 41 -28
71 -31 40 -5 49 -2 79 25 l34 30 0 396 0 396 -26 26 c-35 35 -94 42 -135 16z"/>
<path d="M272 1089 c-20 -6 -40 -22 -52 -42 -18 -29 -20 -51 -20 -252 0 -199
2 -223 19 -251 40 -66 142 -66 182 0 17 28 19 52 19 249 0 234 -5 261 -52 284
-37 19 -61 22 -96 12z"/>
</g>
</svg>
