<?xml version="1.0" standalone="no"?>
<!DOCTYPE svg PUBLIC "-//W3C//DTD SVG 20010904//EN"
 "http://www.w3.org/TR/2001/REC-SVG-20010904/DTD/svg10.dtd">
<svg version="1.0" xmlns="http://www.w3.org/2000/svg"
 width="155.000000pt" height="157.000000pt" viewBox="0 0 155.000000 157.000000"
 preserveAspectRatio="xMidYMid meet">

<g transform="translate(0.000000,157.000000) scale(0.100000,-0.100000)"
fill="#000000" stroke="none">
<path d="M690 1383 c-139 -23 -291 -115 -377 -228 -146 -192 -171 -422 -68
-631 41 -83 119 -176 140 -167 24 9 17 32 -21 76 -47 55 -100 168 -113 241
-35 193 16 363 149 497 106 107 231 159 385 159 154 0 290 -57 393 -164 101
-105 152 -233 152 -381 0 -133 -41 -250 -121 -347 -43 -51 -46 -60 -26 -77 17
-13 30 -3 79 59 107 135 152 332 114 494 -64 273 -322 479 -591 474 -38 0 -81
-3 -95 -5z"/>
<path d="M680 1222 c-230 -60 -381 -292 -335 -513 23 -113 87 -225 120 -212
21 8 18 28 -10 71 -43 65 -57 120 -58 217 0 127 25 189 112 276 49 49 81 71
125 88 157 58 319 27 430 -85 135 -135 151 -345 40 -516 -15 -22 -16 -29 -4
-43 12 -14 15 -14 37 7 37 34 81 136 94 215 10 60 9 82 -5 146 -38 171 -166
305 -335 349 -83 21 -129 21 -211 0z"/>
<path d="M683 1064 c-57 -21 -129 -87 -160 -147 -43 -85 -41 -218 4 -262 14
-15 18 -15 31 -2 12 12 12 21 3 48 -34 98 5 226 88 284 40 28 48 30 135 30 84
0 96 -2 134 -28 67 -44 96 -97 100 -183 2 -41 -1 -88 -7 -105 -13 -39 1 -64
28 -49 40 21 53 151 24 236 -23 67 -110 154 -177 177 -60 21 -146 21 -203 1z"/>
<path d="M764 760 c-11 -4 -26 -16 -34 -25 -29 -35 -270 -460 -270 -477 0 -9
11 -30 24 -45 l24 -28 270 -3 269 -3 32 26 c51 43 54 33 -112 320 -137 237
-151 254 -203 235z"/>
</g>
</svg>
