<?xml version="1.0" standalone="no"?>
<!DOCTYPE svg PUBLIC "-//W3C//DTD SVG 20010904//EN"
 "http://www.w3.org/TR/2001/REC-SVG-20010904/DTD/svg10.dtd">
<svg version="1.0" xmlns="http://www.w3.org/2000/svg"
 width="940.000000pt" height="788.000000pt" viewBox="0 0 940.000000 788.000000"
 preserveAspectRatio="xMidYMid meet">

<g transform="translate(0.000000,788.000000) scale(0.100000,-0.100000)"
fill="#000000" stroke="none">
<path d="M3169 6337 c-51 -31 -345 -222 -560 -363 -104 -68 -129 -101 -129
-169 0 -20 7 -50 16 -66 27 -52 261 -424 410 -650 l142 -217 -54 -53 c-42 -42
-54 -60 -54 -85 0 -36 29 -66 63 -66 26 0 101 49 187 122 144 123 500 374 700
493 135 81 153 97 152 136 -1 42 -25 78 -54 83 -13 2 -40 -2 -61 -10 -21 -8
-39 -13 -41 -11 -1 2 -40 76 -85 163 -152 292 -299 535 -393 647 -71 87 -147
101 -239 46z m41 -201 c0 -2 3 -11 6 -19 9 -23 -24 -49 -47 -37 -19 10 -26 40
-12 53 7 8 53 10 53 3z m138 -97 c4 -21 -24 -50 -43 -43 -20 8 -27 34 -14 51
16 18 53 13 57 -8z m-214 -66 c7 -17 -20 -53 -39 -53 -20 0 -37 28 -30 49 10
32 58 35 69 4z m-214 -48 c20 -25 8 -50 -25 -50 -21 0 -31 5 -33 18 -4 21 14
47 33 47 7 0 18 -7 25 -15z m348 -31 c4 -29 -23 -51 -43 -34 -16 13 -20 42 -8
54 14 14 48 1 51 -20z m152 -19 c15 -18 10 -45 -13 -59 -26 -16 -62 27 -47 55
13 23 43 25 60 4z m-672 -64 c7 -44 -40 -67 -72 -36 -16 17 -12 43 11 62 21
16 57 1 61 -26z m301 -25 c9 -11 10 -20 1 -36 -13 -25 -47 -24 -63 2 -22 34
36 66 62 34z m161 -35 c5 -11 10 -22 10 -25 0 -8 -31 -36 -40 -36 -11 0 -40
29 -40 40 0 14 30 40 45 40 8 0 19 -9 25 -19z m328 -3 c7 -7 12 -22 12 -35 0
-31 -47 -44 -67 -18 -17 24 -16 30 3 49 19 19 36 20 52 4z m-644 -14 c9 -8 16
-19 16 -24 0 -13 -30 -40 -44 -40 -17 0 -36 21 -36 40 0 19 19 40 36 40 7 0
20 -7 28 -16z m473 -20 c8 -22 -10 -49 -32 -49 -10 0 -22 7 -28 16 -15 24 -1
49 28 49 15 0 28 -7 32 -16z m-319 -112 c7 -47 -47 -72 -68 -32 -16 31 4 62
38 58 19 -2 28 -10 30 -26z m280 -11 c8 -4 12 -19 10 -32 -2 -18 -9 -24 -28
-24 -19 0 -26 6 -28 24 -3 20 11 41 28 41 3 0 11 -4 18 -9z m-119 -25 c15 -18
4 -44 -22 -52 -14 -4 -25 -1 -33 11 -27 37 26 76 55 41z m-376 -18 c14 -21 2
-48 -22 -48 -30 0 -45 34 -25 55 18 18 33 16 47 -7z m132 -118 c0 -18 -6 -26
-23 -28 -13 -2 -25 3 -28 12 -10 26 4 48 28 44 17 -2 23 -10 23 -28z m135 -5
c10 -12 10 -18 0 -30 -27 -32 -71 -8 -56 30 3 8 14 15 24 15 11 0 25 -7 32
-15z"/>
<path d="M4142 4974 c-44 -31 -50 -52 -87 -314 -9 -63 -19 -125 -22 -137 -5
-22 -5 -22 -29 6 -33 40 -88 65 -113 52 -36 -19 -35 -63 4 -153 6 -15 -8 -13
-102 13 -228 63 -259 70 -290 64 -48 -9 -75 -49 -100 -150 -12 -50 -45 -187
-74 -305 l-52 -215 -73 -70 c-81 -77 -94 -110 -52 -139 33 -24 58 -20 118 19
49 31 63 35 123 35 138 0 461 31 495 47 61 29 80 74 120 277 l37 185 45 -70
c60 -94 123 -125 163 -81 33 36 22 93 -32 173 -50 73 -50 73 -28 88 22 16 7
18 311 -47 75 -16 125 -8 165 26 20 16 195 326 250 442 15 31 37 70 49 87 24
34 29 92 10 111 -19 19 -89 13 -137 -12 -36 -19 -51 -21 -90 -15 -25 5 -157
29 -293 54 -136 25 -258 45 -271 45 -12 0 -33 -7 -45 -16z m173 -105 c108 -15
357 -58 361 -62 2 -2 -56 -39 -129 -82 -73 -43 -192 -119 -265 -168 -74 -49
-136 -86 -138 -84 -5 4 43 367 51 395 5 15 19 15 120 1z m378 -351 c-105 -178
-95 -173 -249 -137 l-95 22 128 85 c187 123 297 191 302 187 2 -3 -37 -73 -86
-157z m-981 -167 c92 -26 170 -50 173 -53 4 -3 -9 -16 -27 -29 -55 -37 -332
-243 -351 -260 -35 -31 -107 -80 -107 -72 0 8 21 86 84 320 20 73 36 135 36
138 0 10 27 4 192 -44z m173 -382 c-16 -78 -31 -128 -41 -136 -9 -6 -46 -14
-82 -18 -37 -3 -94 -10 -127 -15 -115 -18 -170 -22 -160 -13 18 17 92 72 141
106 27 18 103 72 169 120 66 47 121 85 122 83 2 -1 -8 -59 -22 -127z"/>
<path d="M3120 4698 c0 -9 41 -78 46 -78 3 0 -2 12 -10 28 -21 37 -36 58 -36
50z"/>
<path d="M4564 3479 c-60 -39 -110 -72 -112 -74 -2 -2 10 -30 27 -63 48 -95
99 -127 164 -103 22 9 28 3 75 -64 74 -106 248 -321 312 -385 64 -64 115 -91
183 -98 111 -11 208 73 312 267 71 133 115 193 172 234 124 89 272 6 302 -169
18 -101 0 -217 -69 -451 -22 -74 -46 -170 -55 -215 -60 -315 66 -576 298 -619
158 -29 362 92 445 264 67 138 75 195 78 552 3 408 20 503 114 642 44 65 85
101 162 141 46 23 65 27 138 27 76 0 91 -4 145 -32 83 -44 116 -69 227 -179
87 -87 118 -106 118 -71 0 22 -109 151 -178 210 -83 71 -167 114 -250 128
-219 35 -432 -133 -504 -398 -19 -70 -22 -115 -28 -433 -6 -317 -9 -363 -28
-433 -30 -108 -74 -186 -143 -252 -79 -75 -151 -108 -243 -109 -84 -1 -129 19
-192 86 -84 90 -114 172 -114 317 0 114 14 188 71 384 83 281 89 438 23 568
-51 102 -167 158 -269 130 -89 -23 -164 -106 -256 -281 -95 -179 -169 -249
-262 -250 -64 0 -108 22 -169 84 -56 57 -216 253 -302 369 l-58 78 46 41 c25
23 46 48 46 57 0 17 -99 171 -109 171 -4 0 -56 -32 -117 -71z"/>
</g>
</svg>
